<?xml version="1.0" encoding="utf-8"?>
<!-- Generator: Adobe Illustrator 16.0.0, SVG Export Plug-In . SVG Version: 6.00 Build 0)  -->
<!DOCTYPE svg PUBLIC "-//W3C//DTD SVG 1.1//EN" "http://www.w3.org/Graphics/SVG/1.1/DTD/svg11.dtd">
<svg version="1.1" xmlns="http://www.w3.org/2000/svg" xmlns:xlink="http://www.w3.org/1999/xlink" x="0px" y="0px" width="462px"
	 height="812px" viewBox="0 0 462 812" enable-background="new 0 0 462 812" xml:space="preserve">
<g id="Layer_3" display="none">
	
		<image display="inline" overflow="visible" width="462" height="812" xlink:href="../sprite-kettle.png"  transform="matrix(1 0 0 1 1.2383 0)">
	</image>
</g>
<g id="Layer_1">
	<path fill="#8E8E8E" d="M270.456,381c-9.573-2-21.235-2-33.831-2s-24.258,0-33.831,2H177v8.5l0,0c0,6.075,26.609,11,59.125,11
		S295,395.575,295,389.5V381H270.456z"/>
	<linearGradient id="SVGID_1_" gradientUnits="userSpaceOnUse" x1="236.7041" y1="368.8311" x2="236.5371" y2="391.3311">
		<stop  offset="0" style="stop-color:#D6D4D3"/>
		<stop  offset="0" style="stop-color:#E3E3E3"/>
		<stop  offset="1" style="stop-color:#9B9B9A"/>
	</linearGradient>
	<path fill="url(#SVGID_1_)" d="M291.563,372.621c0,0-2.704-0.044-7.251-0.111c-11.099-2.64-28.326-4.337-47.688-4.337
		c-18.153,0-34.432,1.493-45.542,3.854c-5.326,0.12-8.833,0.31-9.563,0.594c-3.006,1.169-4.475,3.928-5.107,5.575
		c-0.263,0.428-0.412,0.863-0.412,1.304c0,6.256,27.143,11.327,60.625,11.327s60.625-5.071,60.625-11.327
		C297.25,373.917,291.563,372.621,291.563,372.621z"/>
	<linearGradient id="SVGID_2_" gradientUnits="userSpaceOnUse" x1="236.708" y1="365.4917" x2="236.5446" y2="387.5077">
		<stop  offset="0" style="stop-color:#D6D4D3"/>
		<stop  offset="0" style="stop-color:#D2D3D2"/>
		<stop  offset="1" style="stop-color:#9B9B9A"/>
	</linearGradient>
	<ellipse fill="url(#SVGID_2_)" cx="236.625" cy="376.5" rx="58.875" ry="11"/>
	<g>
		<path d="M297,379.505c0-0.38,0.06-0.776-0.024-1.141c-0.046-0.373-0.116-0.736-0.226-1.098c-0.137-0.352-0.252-0.706-0.448-1.029
			c-0.175-0.334-0.393-0.64-0.633-0.93c-0.238-0.293-0.503-0.56-0.788-0.807c-0.287-0.247-0.588-0.473-0.908-0.675
			c-0.639-0.407-1.334-0.726-2.055-0.951l-0.009-0.003l-0.013-0.006c-2.085-1.014-4.319-1.699-6.564-2.286
			c-2.254-0.57-4.536-1.024-6.83-1.406c-4.587-0.772-9.217-1.275-13.854-1.647c-1.158-0.104-2.319-0.176-3.48-0.253
			c-1.159-0.083-2.318-0.171-3.48-0.227l-6.969-0.349l-6.975-0.226c-2.325-0.079-4.652-0.092-6.979-0.124
			c-4.661,0.009-9.307-0.004-13.963,0.127c-2.326,0.082-4.654,0.159-6.979,0.292c-2.325,0.123-4.649,0.275-6.969,0.475
			c-2.323,0.176-4.635,0.458-6.944,0.75c-2.308,0.303-4.611,0.645-6.9,1.062c-2.293,0.396-4.562,0.914-6.801,1.53
			c-2.227,0.639-4.452,1.335-6.512,2.35l-0.046,0.019l-0.409,0.187c-0.146,0.068-0.304,0.131-0.424,0.213
			c-0.259,0.154-0.52,0.3-0.766,0.496c-0.257,0.174-0.485,0.387-0.72,0.592l-0.165,0.148l-0.168,0.177
			c-0.099,0.106-0.253,0.262-0.302,0.331l-0.592,0.775c-0.107,0.128-0.166,0.262-0.252,0.392l-0.24,0.392
			c-0.163,0.258-0.287,0.555-0.433,0.83c-0.14,0.28-0.243,0.577-0.366,0.864l-0.017,0.038l-0.019,0.033
			c-0.159,0.281-0.5,0.57-0.541,0.856L176,379.49v0.006V379l0.003,1C176,379,176,379.566,176,379.433v0.004l0.227,0.017l0.117,0.034
			l0.067,0.067l0.05,0.136l0.061,0.271c0.007,0.103,0.052,0.159,0.087,0.216c0.068,0.119,0.123,0.236,0.186,0.361l0.303,0.381
			c0.188,0.26,0.483,0.464,0.717,0.701l0.177,0.179l0.002,0.201l0.06,4.316l0.034,2.158l0.019,0.999
			c0.029,0.174,0.051,0.364,0.086,0.524c0.062,0.101,0.111,0.199,0.151,0.304c0.607,0.987,1.832,1.764,3.058,2.36
			c1.248,0.604,2.582,1.073,3.926,1.505c5.411,1.693,11.102,2.566,16.765,3.326c5.677,0.736,11.396,1.191,17.12,1.498
			c5.727,0.274,11.46,0.444,17.195,0.469c5.743,0.013,11.469-0.119,17.198-0.428c2.864-0.128,5.727-0.29,8.585-0.506
			c2.859-0.212,5.709-0.512,8.56-0.811c2.849-0.314,5.689-0.695,8.512-1.182c2.82-0.49,5.628-1.08,8.361-1.907
			c1.365-0.414,2.72-0.878,4.003-1.486c1.266-0.603,2.558-1.336,3.318-2.481c0.388-0.571,0.399-1.243,0.394-1.982l-0.166-2.158
			l-0.17-4.316v-0.057l0.238-0.035c0.432-0.334,0.938-0.704,1.261-1.138c0.166-0.213,0.348-0.45,0.443-0.698
			c0.061-0.121,0.026-0.253,0.063-0.381c0.031-0.129-0.006-0.263-0.006-0.394V379.505z M297,379.5c0,0.144,0.164,0.292,0.131,0.433
			c-0.037,0.14,0.029,0.286-0.033,0.417c-0.102,0.27-0.2,0.524-0.372,0.751c-0.162,0.235-0.336,0.443-0.538,0.64
			c-0.199,0.201-0.41,0.376-0.628,0.555l0.051-0.092l0.024,4.316l0.028,2.158c-0.012,0.368,0.044,0.701-0.022,1.098
			c-0.019,0.195-0.042,0.389-0.129,0.562c-0.076,0.175-0.123,0.371-0.242,0.519c-0.824,1.3-2.148,2.056-3.415,2.747
			c-1.292,0.68-2.647,1.21-4.016,1.689c-2.738,0.961-5.549,1.666-8.37,2.297c-2.824,0.625-5.67,1.142-8.524,1.592
			c-2.854,0.462-5.725,0.792-8.597,1.101c-2.873,0.296-5.751,0.545-8.632,0.747c-5.761,0.337-11.546,0.496-17.312,0.509
			c-5.773,0.012-11.549-0.13-17.312-0.512c-5.763-0.378-11.52-0.904-17.248-1.716c-2.865-0.4-5.719-0.891-8.558-1.483
			c-2.838-0.593-5.661-1.292-8.433-2.232c-1.383-0.481-2.753-1.019-4.077-1.708c-1.297-0.714-2.656-1.508-3.537-3.019
			c-0.097-0.227-0.184-0.462-0.259-0.694c-0.034-0.191-0.047-0.36-0.071-0.542l0.047-0.034l0.044-0.114v-0.067l-0.049-0.135
			l-0.021-0.27l-0.004-0.54l0.027-2.158l0.057-4.316l0.177,0.379c-0.275-0.287-0.589-0.519-0.828-0.854l-0.363-0.494
			c-0.103-0.199-0.193-0.42-0.28-0.633c-0.11-0.229-0.089-0.384-0.126-0.573l-0.02-0.136l-0.01-0.068l-0.004-0.034l0.223-0.017
			l0.221-0.077v-0.01l-0.193-0.334c0.072-0.439,0.137-0.832,0.349-1.181l-0.09,0.07c0.141-0.306,0.233-0.622,0.391-0.919
			c0.166-0.295,0.287-0.597,0.479-0.885l0.274-0.431c0.097-0.138,0.18-0.299,0.285-0.417l0.61-0.759
			c0.154-0.185,0.239-0.25,0.361-0.382l0.168-0.175l0.198-0.176c0.257-0.221,0.508-0.448,0.791-0.637
			c0.266-0.207,0.572-0.379,0.876-0.552c0.152-0.096,0.299-0.151,0.448-0.219c0.164-0.071,0.261-0.122,0.479-0.209l-0.045,0.019
			c2.144-1.029,4.4-1.707,6.659-2.331c1.136-0.292,2.27-0.585,3.417-0.818c1.143-0.257,2.286-0.498,3.436-0.718
			c4.593-0.901,9.231-1.508,13.875-2.048c2.321-0.28,4.648-0.511,6.978-0.714c2.329-0.213,4.662-0.37,6.996-0.527
			c2.335-0.126,4.669-0.265,7.012-0.34c2.347-0.116,4.665-0.113,7.013-0.146c2.339,0.008,4.679-0.003,7.018,0.052
			c2.34,0.016,4.678,0.128,7.016,0.239c2.336,0.131,4.673,0.267,7.004,0.482c2.332,0.198,4.663,0.422,6.984,0.726
			c4.646,0.576,9.277,1.292,13.859,2.258c2.29,0.481,4.568,1.034,6.813,1.703c2.233,0.697,4.479,1.403,6.567,2.495l-0.021-0.009
			c0.741,0.251,1.444,0.598,2.102,1.017c0.328,0.21,0.641,0.446,0.935,0.703c0.293,0.258,0.57,0.535,0.814,0.84
			c0.246,0.302,0.479,0.621,0.658,0.968c0.201,0.336,0.339,0.705,0.477,1.069c0.111,0.375,0.044,0.75,0.091,1.143
			c0.083,0.39-0.083,0.77-0.083,1.155V379.5z"/>
	</g>
	<g>
		<linearGradient id="SVGID_3_" gradientUnits="userSpaceOnUse" x1="308.1367" y1="41.9854" x2="202.1374" y2="80.3187">
			<stop  offset="0" style="stop-color:#D6D4D3"/>
			<stop  offset="0" style="stop-color:#E3E3E3"/>
			<stop  offset="1" style="stop-color:#9B9B9A"/>
		</linearGradient>
		<path fill="url(#SVGID_3_)" d="M188,69.753c0,0,46.543,18.753,109.021,0c0,0-9.521-20.553-57.521-20.553
			C209.5,49.2,197.25,59,188,69.753z"/>
		<path opacity="0.1" d="M250.501,56.25c2.896-1.614,3.775-4.17,3.503-6.343c-4.4-0.446-9.205-0.708-14.504-0.708
			c-3.3,0-6.372,0.125-9.262,0.35c0.196,1.158,0.67,2.509,1.679,3.95C234.834,57.667,244.668,59.501,250.501,56.25z"/>
		<g opacity="0.1">
			<path d="M197.501,66c-0.971-0.97,1.199-4.53,3.688-7.938c-5.453,3.394-9.556,7.467-13.189,11.691c0,0,18.86,7.595,48.681,8.283
				C206.28,77.304,199.423,67.922,197.501,66z"/>
			<path d="M240.181,78.083c-0.622-0.001-1.227-0.009-1.832-0.018C238.956,78.074,239.565,78.08,240.181,78.083z"/>
		</g>
		<path fill="none" stroke="#000000" stroke-miterlimit="10" d="M252.523,49.759c0.143-1.2,0.145-2.51,0.145-3.884
			c0-5.73-4.646-10.375-10.375-10.375c-5.73,0-10.376,4.645-10.376,10.375c0,1.247,0.028,2.438,0.165,3.545
			c-24.68,1.494-35.636,10.514-44.082,20.333c0,0,46.543,18.753,109.021,0C297.021,69.753,289.264,53.038,252.523,49.759z"/>
		<g>
			<radialGradient id="SVGID_4_" cx="243.1875" cy="44" r="9.4184" gradientUnits="userSpaceOnUse">
				<stop  offset="0" style="stop-color:#D6D4D3"/>
				<stop  offset="0" style="stop-color:#EFEEEE"/>
				<stop  offset="0.6372" style="stop-color:#B7B6B6"/>
				<stop  offset="1" style="stop-color:#9C9A9A"/>
			</radialGradient>
			<path fill="url(#SVGID_4_)" d="M252.668,45.875c0,5.73,0,10.375-10.375,10.375c-9.922,0-10.376-4.645-10.376-10.375
				c0-5.73,4.646-10.375,10.376-10.375C248.022,35.5,252.668,40.145,252.668,45.875z"/>
			<path fill="#686060" d="M252.718,45.875c0,0,0.021,1.052-0.021,2.903c-0.06,0.92-0.081,2.065-0.514,3.325
				c-0.409,1.245-1.388,2.61-2.908,3.337c-1.485,0.771-3.264,1.077-5.098,1.18c-1.844,0.082-3.769-0.015-5.755-0.416
				c-0.492-0.102-0.985-0.219-1.467-0.402c-0.492-0.143-0.959-0.371-1.432-0.587c-0.921-0.488-1.753-1.183-2.356-2.063
				c-0.621-0.873-0.967-1.916-1.158-2.96c-0.213-1.045-0.307-2.111-0.355-3.171c-0.017-0.515-0.062-1.079-0.038-1.602
				c-0.012-0.518,0.06-1.068,0.132-1.62c0.201-1.073,0.549-2.109,1.034-3.078c0.511-0.955,1.161-1.821,1.901-2.585
				c0.752-0.755,1.612-1.375,2.515-1.887c1.826-0.989,3.886-1.396,5.77-1.238c1.913,0.099,3.64,0.796,5.005,1.698
				c1.376,0.908,2.374,2.069,3.068,3.179c0.702,1.116,1.06,2.208,1.311,3.1c0.225,0.903,0.312,1.631,0.337,2.125
				C252.707,45.611,252.718,45.875,252.718,45.875z M252.618,45.875c0,0-0.016-0.262-0.046-0.752
				c-0.034-0.488-0.127-1.209-0.403-2.082c-0.274-0.87-0.75-1.887-1.502-2.896c-0.75-1.01-1.819-1.972-3.135-2.727
				c-1.313-0.757-2.902-1.286-4.618-1.365c-0.872-0.071-1.747,0.044-2.638,0.189c-0.879,0.202-1.755,0.499-2.594,0.923
				c-0.826,0.444-1.622,0.986-2.324,1.659c-0.693,0.679-1.298,1.462-1.803,2.318c-0.481,0.87-0.845,1.816-1.073,2.799
				c-0.092,0.486-0.197,0.974-0.22,1.512c-0.057,0.529-0.044,1.02-0.062,1.558c-0.004,2.064,0.068,4.263,1.223,5.968
				c0.562,0.844,1.389,1.458,2.269,1.905c0.459,0.191,0.903,0.407,1.392,0.503c0.47,0.143,0.953,0.223,1.436,0.288
				c1.911,0.275,3.833,0.17,5.604,0.093c1.771-0.153,3.427-0.445,4.805-1.041c1.399-0.569,2.361-1.641,2.853-2.783
				c0.497-1.143,0.66-2.268,0.742-3.177c0.081-0.916,0.082-1.641,0.089-2.135C252.615,46.139,252.618,45.875,252.618,45.875z"/>
		</g>
		<path opacity="0.1" d="M212.821,52.756C200.88,56.559,193.84,62.965,188,69.753c0,0,23.571,9.491,59.676,8.212
			C208.525,74.137,208.565,60.987,212.821,52.756z"/>
	</g>
	<g>
		<linearGradient id="SVGID_5_" gradientUnits="userSpaceOnUse" x1="102.0898" y1="190.0508" x2="177.5901" y2="216.0508">
			<stop  offset="0" style="stop-color:#D6D4D3"/>
			<stop  offset="0" style="stop-color:#706F6F"/>
			<stop  offset="0.143" style="stop-color:#737272"/>
			<stop  offset="0.2481" style="stop-color:#7C7B7B"/>
			<stop  offset="0.3411" style="stop-color:#8C8B8B"/>
			<stop  offset="0.4265" style="stop-color:#A3A2A2"/>
			<stop  offset="0.4856" style="stop-color:#B7B6B6"/>
			<stop  offset="0.5632" style="stop-color:#A9A8A8"/>
			<stop  offset="0.7088" style="stop-color:#959594"/>
			<stop  offset="0.8546" style="stop-color:#898988"/>
			<stop  offset="1" style="stop-color:#858584"/>
		</linearGradient>
		<path fill="url(#SVGID_5_)" d="M187.328,140.082c-1.668,1.552-8.518,1.716-8.518,1.716c-4.411-0.614-16.459-1.713-29.811,2.03
			c-15.487,4.342-35.657,16.114-43.793,47.543c-7.994,30.884,0.89,51.968,9.75,64.217c6.364,8.799,13.601,14.369,17.924,17.21l0,0
			c6.023,4.482,6.703,9.702,6.703,9.702S158,277,157.75,275.771S154,254,154,254s-13.234-3.474-13.652,1.258s-6.157,2.31-6.157,2.31
			v0c-10.294-8.926-25.301-28.545-16.397-62.939c9.302-35.938,37.057-40.628,51.461-40.522c3.984-0.094,1.578,5.37,1.578,5.37
			l4.918,4.273l7.25,4l14.25-12C197.25,155.75,188.996,138.529,187.328,140.082z"/>
		<path opacity="0.1" d="M140.348,255.258c-0.242,2.747-2.275,3.079-3.94,2.878c-0.998,2.65-1.578,5.154-2.851,6.427
			c-3.25,3.25-12.943-7.688-17.943-14.938c-3.687-5.345,1.79-8.581,4.924-9.914c-2.506-5.248-4.418-11.458-5.138-18.711H104.25
			l-1.722,1.796c1.544,14.41,6.987,25.27,12.429,32.792c6.364,8.799,13.601,14.369,17.924,17.21
			c6.023,4.482,6.703,9.702,6.703,9.702S158,277,157.75,275.771S154,254,154,254S140.766,250.526,140.348,255.258z"/>
		<g opacity="0.1">
			<path d="M149,143.828c-10.937,3.066-24.202,9.849-33.923,24.63l0.423,6.259l8.342,4.445
				c8.635-15.563,21.878-21.708,33.132-23.922c-0.56-4.863-3.66-9.092-6.259-11.857C150.145,143.526,149.575,143.667,149,143.828z"
				/>
			<path d="M168.44,154.109c0.272-0.001,0.55-0.005,0.813-0.003c3.984-0.094,1.578,5.37,1.578,5.37l4.918,4.273l7.25,4l14.25-12
				c0,0-5.795-12.088-8.654-15.092C178.177,142.753,171.833,149.266,168.44,154.109z"/>
		</g>
		<linearGradient id="SVGID_6_" gradientUnits="userSpaceOnUse" x1="376.2109" y1="126.312" x2="319.2434" y2="176.3322">
			<stop  offset="0" style="stop-color:#D6D4D3"/>
			<stop  offset="0" style="stop-color:#E3E3E3"/>
			<stop  offset="1" style="stop-color:#9B9B9A"/>
		</linearGradient>
		<path fill="url(#SVGID_6_)" d="M311.285,147.982c0,0,17.382,3.018,26.382-2.982s16.186-15.321,16.186-15.321
			S366.334,131,375.667,126c0,0-28.572,35.667-31.786,40s-5.443,14.071-6.756,22.875c-3.375,22.647-17.791,7.792-17.791,7.792
			L311.285,147.982z"/>
		<path opacity="0.1" d="M354.152,152.946c-15.354,3.443-24.32-0.518-29.076-4.346c-7.18,0.527-13.791-0.618-13.791-0.618
			l8.049,48.684c0,0,14.416,14.856,17.791-7.792c1.312-8.804,3.542-18.542,6.756-22.875
			C344.997,164.495,349.176,159.205,354.152,152.946z"/>
		<path opacity="0.1" d="M342.365,168.584c-5.625,2.947-10.085,3.153-13.865-4.859c-3.175-6.728-6.821-11.696-9.727-15.031
			c-4.323-0.164-7.488-0.711-7.488-0.711l8.049,48.684c0,0,14.416,14.856,17.791-7.792
			C338.22,181.531,339.955,173.549,342.365,168.584z"/>
		<radialGradient id="SVGID_7_" cx="258.333" cy="193" r="101.922" gradientUnits="userSpaceOnUse">
			<stop  offset="0" style="stop-color:#D6D4D3"/>
			<stop  offset="0" style="stop-color:#EFEEEE"/>
			<stop  offset="0.6372" style="stop-color:#B7B6B6"/>
			<stop  offset="1" style="stop-color:#9C9A9A"/>
		</radialGradient>
		<path fill="url(#SVGID_7_)" d="M300.021,136.753C280.771,131.75,259.206,131,245.5,131c-13.7,0-35.25,0.75-54.5,5.753
			c-50,43.253-52.691,124.289-51.104,147.497C161.043,298.5,245.5,297,245.5,297s84.499,1.5,105.646-12.75
			C352.733,261.042,350.021,180.006,300.021,136.753z"/>
		<path opacity="0.1" d="M342.269,207.833c2.297,17.594,5.271,60.883-4.019,72.167c-7.615,9.25-72.25,11.5-88,11.25
			s-34,2.25-71.25-5.5s-30.447-22.245-31.5-37.25c-1.089-15.522-0.75-13,3.5-33c4.01-18.869,4.367-26.905,4.367-26.905v0
			c-15.676,38.679-16.533,80.121-15.471,95.655C161.043,298.5,245.5,297,245.5,297s84.499,1.5,105.646-12.75
			C352.033,271.278,351.573,240.241,342.269,207.833z"/>
		<linearGradient id="SVGID_8_" gradientUnits="userSpaceOnUse" x1="123.8145" y1="140.2666" x2="123.8144" y2="240.4751">
			<stop  offset="0" style="stop-color:#664E2F"/>
			<stop  offset="1" style="stop-color:#4E3B22"/>
		</linearGradient>
		<path fill="url(#SVGID_8_)" d="M108.271,240.475c-6.131,0-9.68-1.205-11.135-7.432c-3.131-13.404-2.695-28.015,1.294-43.427
			c5.861-22.644,18.7-39.306,37.127-48.185c6.719-3.234,11.457,0.602,14.692,7.318c3.236,6.717,3.743,13.77-2.974,17.006
			c-11.362,5.474-18.79,15.493-22.707,30.626c-2.885,11.142-3.268,21.41-1.14,30.518c1.695,7.26-4.815,11.521-12.075,13.217
			C110.321,240.359,109.288,240.475,108.271,240.475z"/>
		<g>
			<path fill="#44311D" d="M147.276,165.756c3.543-1.707,5.062-4.48,5.245-7.702c-0.11,0.022-9.886,1.981-15.188,8.279
				c-2.731,3.244-5.344,9.698-7.787,16.862C133.759,175.206,139.621,169.445,147.276,165.756z"/>
			<path fill="#44311D" d="M123.43,226.901c-1.671-7.151-1.786-15.019-0.366-23.461c-0.001,0.002-0.001,0.004-0.002,0.006
				c-4.062,12.222-1.396,24.555-9.729,27.222s-17.877,2.73-16.771-32.468c-2.158,12.266-1.969,23.953,0.575,34.844
				c1.455,6.227,5.004,7.432,11.135,7.432c1.017,0,2.05-0.116,3.083-0.357C118.614,238.422,125.125,234.161,123.43,226.901z"/>
		</g>
		<g>
			<g>
				<path d="M337.104,188.018c0.596-3.037,1.176-6.078,1.852-9.102c0.688-3.017,1.425-6.042,2.598-8.928
					c0.591-1.438,1.293-2.84,2.228-4.104l2.861-3.656c1.905-2.438,3.811-4.877,5.745-7.293l23.108-29.073l0.276,0.332
					c-3.328,1.785-7.006,2.8-10.711,3.37c-1.855,0.285-3.729,0.45-5.604,0.521c-1.877,0.065-3.749,0.052-5.636-0.109l0.268-0.115
					c-2.532,3.2-5.298,6.185-8.248,8.993c-0.746,0.692-1.487,1.391-2.263,2.052c-0.761,0.678-1.557,1.315-2.346,1.96
					c-0.812,0.617-1.609,1.254-2.455,1.829c-0.834,0.601-1.68,1.16-2.619,1.641c-3.715,1.876-7.843,2.588-11.907,2.881
					c-2.041,0.137-4.087,0.153-6.127,0.07c-2.044-0.087-4.069-0.25-6.112-0.551l-0.171-0.025l-0.129-0.144l-1.377-1.543
					l-1.428-1.496c-0.975-0.978-1.971-1.934-2.989-2.87c-2.041-1.867-4.161-3.658-6.273-5.47l0.232,0.122l-3.325-0.798l-3.345-0.717
					c-2.236-0.446-4.479-0.861-6.734-1.214c-2.252-0.361-4.512-0.685-6.778-0.954c-2.264-0.288-4.536-0.52-6.81-0.727
					c-4.547-0.414-9.106-0.695-13.671-0.869c-4.564-0.183-9.134-0.257-13.703-0.251c-4.574,0.014-9.136,0.108-13.7,0.311
					c-4.562,0.203-9.119,0.513-13.66,0.957c-2.271,0.221-4.539,0.468-6.799,0.77c-2.263,0.283-4.518,0.622-6.765,0.997
					c-2.249,0.366-4.486,0.795-6.716,1.255l-3.332,0.737l-3.312,0.818l0.362-0.19l-2.519,2.299l-0.63,0.575l-0.315,0.287
					c-0.08,0.082-0.285,0.249-0.369,0.316c-0.367,0.28-0.662,0.415-0.973,0.555c-0.307,0.134-0.606,0.231-0.907,0.326
					c-1.193,0.349-2.361,0.529-3.53,0.671c-1.173,0.137-2.323,0.224-3.513,0.266l-0.067,0.002l-0.083-0.011
					c-5.148-0.678-10.398-0.769-15.589-0.368c-1.298,0.108-2.594,0.24-3.884,0.41c-0.647,0.073-1.287,0.19-1.932,0.283
					c-0.645,0.09-1.283,0.211-1.922,0.333c-1.282,0.222-2.548,0.524-3.814,0.814l-1.886,0.494c-0.604,0.153-1.257,0.365-1.883,0.544
					l-0.639,0.184l-0.421-0.515c-0.826-1.011-1.77-1.899-2.826-2.554c-1.066-0.624-2.238-1.03-3.459-1.046
					c-1.216-0.035-2.46,0.223-3.646,0.717l-0.877,0.393l-0.932,0.468c-0.632,0.308-1.22,0.635-1.819,0.957
					c-4.803,2.614-9.26,5.877-13.221,9.649c-3.969,3.768-7.44,8.055-10.361,12.69c-2.927,4.633-5.319,9.603-7.218,14.754
					c-0.949,2.576-1.777,5.199-2.492,7.854c-0.37,1.319-0.667,2.662-1.004,4.02c-0.281,1.341-0.596,2.669-0.834,4.028
					c-1.03,5.404-1.629,10.89-1.703,16.377c-0.052,2.743,0.044,5.487,0.279,8.217c0.229,2.729,0.58,5.45,1.108,8.135
					c0.113,0.675,0.27,1.341,0.415,2.009l0.219,1.002c0.052,0.257,0.17,0.65,0.251,0.968c0.34,1.196,0.853,2.352,1.589,3.214
					c1.418,1.782,3.972,2.278,6.624,2.373l0.835,0.03l0.34,0.813c0.428,1.023,0.818,2.063,1.291,3.067
					c0.441,1.018,0.938,2.009,1.43,3.003c0.518,0.98,1.023,1.968,1.589,2.921c0.543,0.967,1.137,1.904,1.727,2.841
					c0.604,0.929,1.227,1.847,1.874,2.746c0.635,0.866,1.344,1.825,2.02,2.654c0.674,0.859,1.403,1.711,2.133,2.541
					c0.731,0.833,1.488,1.644,2.26,2.441c3.093,3.179,6.489,6.071,10.13,8.585l0.686,0.466l0.345,0.229l0.173,0.115l0.188,0.138
					l0.083,0.065c0.449,0.364,0.875,0.664,1.354,1.11c0.959,0.825,1.757,1.701,2.532,2.66c0.764,0.955,1.433,1.994,1.988,3.102
					c0.271,0.559,0.527,1.125,0.736,1.721c0.216,0.616,0.39,1.15,0.521,1.936l-1.88-1.216l0.208-0.063l1.771-0.537l0.116,1.867
					l0.111,1.787l-0.647-1.121c3.503,2.273,7.702,3.729,11.908,4.919c4.233,1.178,8.576,2.056,12.942,2.805
					c8.745,1.47,17.608,2.376,26.485,3.068c8.879,0.696,17.786,1.133,26.699,1.404c4.457,0.134,8.915,0.226,13.374,0.274
					c4.479,0.047,8.873,0.057,13.417,0.005c8.896,0.156,17.832,0.096,26.746-0.112c8.917-0.215,17.83-0.597,26.72-1.239
					c8.889-0.625,17.769-1.47,26.549-2.88c4.385-0.72,8.75-1.569,13.022-2.724c4.248-1.174,8.497-2.594,12.139-4.927l-0.333,0.578
					l0.191-3.035l0.12-3.043c0.045-2.031,0.106-4.063,0.084-6.097l-0.013-3.051l-0.077-3.051c-0.031-2.035-0.156-4.066-0.242-6.1
					c-0.092-2.034-0.265-4.062-0.393-6.095c-0.155-2.03-0.361-4.056-0.539-6.084l-0.688-6.071c-0.259-2.02-0.574-4.032-0.859-6.049
					c-0.29-2.016-0.675-4.017-1.008-6.027c-0.318-2.013-0.774-4-1.161-6c-0.378-2.002-0.848-3.985-1.314-5.968l-0.694-2.977
					c-0.239-0.99-0.521-1.969-0.778-2.955c-0.549-1.961-1.005-3.951-1.634-5.889l-1.799-5.842l-2.005-5.775
					c-0.323-0.949-0.729-1.939-0.782-2.994C336.729,190.048,336.905,189.018,337.104,188.018z M337.398,188.076
					c-0.19,0.998-0.352,2-0.277,2.995c0.057,0.999,0.445,1.927,0.787,2.897l2.061,5.769l1.854,5.838
					c0.647,1.938,1.122,3.926,1.689,5.888c0.268,0.985,0.558,1.965,0.807,2.956l0.723,2.977c0.485,1.984,0.974,3.967,1.371,5.971
					c0.405,2.002,0.88,3.991,1.217,6.005c0.352,2.012,0.756,4.016,1.065,6.035c0.303,2.02,0.637,4.036,0.915,6.06l0.791,6.079
					c0.214,2.032,0.455,4.062,0.646,6.097c0.163,2.037,0.372,4.071,0.499,6.111c0.121,2.041,0.282,4.08,0.349,6.124l0.13,3.065
					l0.065,3.068c0.058,2.045,0.031,4.093,0.021,6.141l-0.067,3.073l-0.142,3.076l-0.017,0.368l-0.316,0.21
					c-3.868,2.565-8.195,4.073-12.513,5.354c-4.337,1.255-8.741,2.192-13.161,2.998c-8.847,1.578-17.766,2.596-26.694,3.367
					c-8.933,0.735-17.88,1.209-26.83,1.516c-8.955,0.299-17.897,0.45-26.876,0.383c-4.393,0.072-8.938,0.065-13.396,0.03
					c-4.479-0.038-8.956-0.12-13.434-0.245c-8.954-0.251-17.907-0.67-26.852-1.35c-8.941-0.704-17.876-1.662-26.758-3.179
					c-4.438-0.777-8.865-1.685-13.241-2.918c-4.359-1.265-8.734-2.738-12.742-5.363l-0.606-0.397l-0.041-0.724l-0.104-1.835
					l1.888,1.33l-0.202,0.06l-1.604,0.477l-0.275-1.693c-0.054-0.331-0.202-0.887-0.366-1.335c-0.162-0.474-0.371-0.94-0.591-1.401
					c-0.454-0.917-1.01-1.796-1.656-2.61c-0.64-0.804-1.37-1.61-2.126-2.263c-0.341-0.337-0.837-0.699-1.265-1.049l-0.083-0.066
					L132,273.931l-0.011-0.008c0.205,0.148,0.051,0.037,0.094,0.068l-0.022-0.015l-0.181-0.121l-0.36-0.243l-0.715-0.492
					c-3.792-2.65-7.303-5.675-10.503-9c-0.798-0.834-1.58-1.682-2.337-2.553c-0.759-0.874-1.497-1.745-2.216-2.67
					c-0.746-0.931-1.377-1.797-2.075-2.76c-0.67-0.941-1.312-1.9-1.937-2.872c-0.61-0.98-1.222-1.959-1.781-2.969
					c-0.584-0.996-1.104-2.026-1.638-3.05c-0.506-1.037-1.017-2.072-1.47-3.133c-0.485-1.047-0.887-2.13-1.325-3.197l1.175,0.843
					c-1.449-0.068-2.944-0.227-4.452-0.692c-1.492-0.462-3.022-1.358-4.05-2.655c-1.06-1.277-1.669-2.739-2.08-4.212
					c-0.089-0.355-0.175-0.629-0.267-1.053l-0.221-1.038c-0.146-0.692-0.304-1.381-0.417-2.08c-0.53-2.778-0.877-5.588-1.099-8.403
					c-0.226-2.815-0.309-5.641-0.24-8.461c0.109-5.641,0.753-11.259,1.829-16.78c0.248-1.381,0.579-2.761,0.876-4.141
					c0.339-1.34,0.65-2.714,1.037-4.073c0.744-2.715,1.604-5.4,2.591-8.041c1.972-5.28,4.454-10.383,7.494-15.147
					c3.032-4.766,6.638-9.18,10.758-13.058c4.116-3.883,8.729-7.23,13.714-9.916c0.628-0.334,1.259-0.679,1.88-0.978l0.934-0.464
					c0.348-0.167,0.686-0.305,1.029-0.457c1.383-0.567,2.921-0.9,4.488-0.847c1.571,0.03,3.117,0.568,4.436,1.357
					c1.309,0.818,2.403,1.876,3.332,3.021l-1.06-0.332c0.643-0.181,1.245-0.376,1.92-0.545l1.943-0.501
					c1.305-0.292,2.607-0.598,3.926-0.82c0.657-0.122,1.314-0.244,1.977-0.333c0.662-0.092,1.32-0.209,1.984-0.281
					c1.325-0.169,2.654-0.297,3.985-0.403c5.328-0.386,10.682-0.273,15.992,0.449l-0.15-0.009c1.102-0.033,2.239-0.113,3.344-0.238
					c1.105-0.127,2.211-0.301,3.221-0.592c0.246-0.077,0.493-0.156,0.711-0.251c0.215-0.089,0.435-0.214,0.527-0.277
					c0.138-0.116,0.159-0.12,0.285-0.239l0.321-0.291l0.643-0.581l2.571-2.325l0.154-0.14l0.208-0.05l3.36-0.814l3.378-0.731
					c2.257-0.455,4.521-0.879,6.793-1.239c2.271-0.369,4.549-0.7,6.831-0.976c2.28-0.294,4.567-0.533,6.855-0.746
					c4.576-0.427,9.162-0.718,13.751-0.902c4.585-0.184,9.184-0.259,13.769-0.252c9.178,0.021,18.364,0.386,27.506,1.303
					c2.285,0.228,4.568,0.48,6.845,0.789c2.278,0.29,4.551,0.636,6.816,1.018c2.268,0.374,4.524,0.812,6.775,1.28l3.365,0.751
					l3.348,0.834l0.13,0.032l0.103,0.09c2.092,1.827,4.205,3.644,6.251,5.549c1.021,0.955,2.022,1.933,3.002,2.934l1.438,1.533
					l1.387,1.582l-0.3-0.169c1.966,0.308,3.985,0.489,5.99,0.59c2.009,0.099,4.023,0.101,6.028-0.017
					c3.991-0.25,8.033-0.925,11.601-2.692c0.871-0.435,1.728-0.986,2.541-1.563c0.837-0.558,1.629-1.181,2.437-1.783
					c0.784-0.632,1.577-1.254,2.336-1.919c0.773-0.647,1.514-1.333,2.259-2.013c2.945-2.755,5.73-5.71,8.249-8.852l0.104-0.13
					l0.164,0.015c1.832,0.169,3.702,0.198,5.555,0.145c1.855-0.058,3.71-0.208,5.546-0.477c3.666-0.537,7.3-1.516,10.578-3.245
					l0.945-0.499l-0.669,0.831L364.194,140.6l-11.569,14.52c-1.935,2.416-3.839,4.854-5.745,7.292l-2.861,3.655
					c-0.908,1.228-1.604,2.614-2.188,4.035c-1.161,2.855-1.896,5.87-2.583,8.88C338.574,182,337.994,185.039,337.398,188.076z"/>
				<path d="M134.341,257.568L134.341,257.568l0.003,0.344l-0.252-0.23c-0.795-0.728-1.632-1.413-2.395-2.177l-1.156-1.134
					c-0.395-0.37-0.747-0.779-1.115-1.174c-0.737-0.79-1.469-1.585-2.138-2.435l-1.03-1.252c-0.336-0.423-0.642-0.87-0.964-1.304
					l-0.955-1.311c-0.321-0.436-0.59-0.906-0.888-1.358l-0.872-1.369c-0.304-0.449-0.55-0.931-0.812-1.405
					c-0.503-0.958-1.078-1.881-1.522-2.869l-1.358-2.953l-0.13-0.281l0.269-0.191c1.537-1.096,2.867-2.513,3.573-4.219
					c0.73-1.711,0.734-3.583,0.298-5.438l-0.589-2.856c-0.188-0.955-0.279-1.949-0.423-2.923c-0.158-0.979-0.207-1.959-0.271-2.939
					c-0.062-0.98-0.152-1.96-0.129-2.943c0.002-0.981-0.016-1.964,0.003-2.946l0.17-2.94c0.029-0.984,0.195-1.953,0.292-2.929
					c0.114-0.975,0.207-1.954,0.395-2.917l0.496-2.902l0.64-2.872l0.324-1.435l0.385-1.422l0.383-1.407l0.445-1.415
					c0.284-0.95,0.611-1.88,0.956-2.803c0.318-0.932,0.707-1.84,1.086-2.751c0.76-1.823,1.657-3.589,2.614-5.324
					c1.008-1.706,2.068-3.39,3.297-4.956c1.184-1.602,2.558-3.055,3.972-4.46c1.457-1.36,2.981-2.662,4.636-3.781
					c1.622-1.169,3.378-2.131,5.148-3.047l1.196-0.694c0.232-0.118,0.379-0.253,0.53-0.384l0.469-0.385
					c0.615-0.54,1.158-1.224,1.561-1.951c0.809-1.472,1.045-3.246,0.879-5.024l-0.091-0.971l0.921-0.227l2.957-0.729l1.479-0.363
					c0.493-0.124,0.999-0.175,1.498-0.266l3.003-0.491c0.501-0.081,1.009-0.104,1.513-0.158l1.515-0.141
					c0.505-0.042,1.01-0.102,1.516-0.13l1.52-0.047l1.521-0.046l0.38-0.011l0.096-0.003l0.047-0.001l0.133,0.003l0.187,0.011
					c0.252,0.021,0.436-0.008,0.949,0.137c0.448,0.093,0.82,0.323,1.179,0.573c0.326,0.295,0.639,0.648,0.798,1.025
					c0.357,0.75,0.416,1.473,0.386,2.083c-0.025,0.625-0.123,1.202-0.264,1.747c-0.143,0.559-0.298,1.051-0.532,1.623l-0.031,0.078
					l-0.092,0.143l-3.642,5.715l-3.359,5.886l-3.106,6.026l-2.848,6.154l-2.636,6.251l-2.41,6.347l-2.193,6.429
					c-0.672,2.164-1.379,4.317-2.022,6.491c-0.601,2.186-1.255,4.359-1.812,6.558c-0.532,2.205-1.14,4.394-1.611,6.615
					c-0.487,2.217-0.995,4.431-1.435,6.66c-0.462,2.225-0.917,4.452-1.298,6.694c-0.42,2.235-0.776,4.481-1.117,6.731
					c-0.375,2.246-0.623,4.508-0.967,6.76c-0.159,1.128-0.28,2.26-0.423,3.391l-0.206,1.697c-0.045,0.3-0.048,0.527-0.125,0.888
					c-0.073,0.288-0.074,0.539-0.226,0.867c-0.198,0.648-0.644,1.159-1.17,1.536c-0.549,0.365-1.185,0.482-1.784,0.516
					c-1.215,0.028-2.351-0.292-3.423-0.748L134.341,257.568z M134.249,257.43c1.051,0.354,2.192,0.568,3.263,0.453
					c0.525-0.076,1.043-0.211,1.435-0.514c0.368-0.307,0.688-0.723,0.792-1.187c0.101-0.192,0.104-0.528,0.153-0.795
					c0.039-0.199,0.039-0.547,0.061-0.812l0.099-1.713c0.07-1.141,0.12-2.285,0.208-3.426c0.183-2.28,0.345-4.565,0.617-6.838
					c0.24-2.277,0.496-4.554,0.817-6.822c0.281-2.275,0.638-4.539,1.002-6.803c0.319-2.272,0.82-4.511,1.239-6.767
					c0.419-2.256,0.974-4.484,1.454-6.729c0.507-2.239,1.11-4.455,1.661-6.685c0.595-2.219,1.254-4.421,1.878-6.633
					c0.677-2.197,1.438-4.368,2.152-6.554l2.403-6.471c0.888-2.124,1.753-4.258,2.671-6.37l2.968-6.24l3.24-6.106l3.535-5.942
					l3.821-5.764l-0.123,0.221c0.149-0.346,0.307-0.8,0.415-1.203c0.117-0.414,0.186-0.824,0.208-1.191
					c0.036-0.377-0.031-0.677-0.098-0.824c-0.022-0.093-0.072-0.097-0.091-0.152c-0.062-0.016-0.101-0.076-0.151-0.074
					c-0.011-0.006-0.021-0.015-0.031-0.027c-0.008-0.005-0.006-0.013-0.021-0.019l-0.093-0.007l-0.371-0.028l-0.187-0.014
					l-0.012-0.001c0.037,0.001-0.089-0.004,0.08,0.003h-0.006l-0.022,0l-0.046,0l-0.091,0.001l-0.365,0.004l-1.461,0.019
					l-1.462,0.018c-0.486,0.019-0.971,0.068-1.457,0.101l-1.457,0.108c-0.485,0.043-0.975,0.056-1.456,0.125l-2.891,0.424
					c-0.48,0.08-0.969,0.121-1.442,0.233l-1.421,0.33l-2.846,0.656l0.83-1.198c0.166,2.08-0.129,4.336-1.228,6.276
					c-0.556,0.966-1.244,1.815-2.099,2.544l-0.671,0.524c-0.226,0.176-0.453,0.353-0.659,0.452l-1.339,0.746
					c-1.691,0.847-3.37,1.733-4.921,2.819c-1.583,1.037-3.041,2.25-4.443,3.519c-1.358,1.316-2.687,2.676-3.837,4.189
					c-1.194,1.477-2.231,3.077-3.226,4.702c-0.943,1.657-1.835,3.348-2.596,5.105c-0.381,0.878-0.771,1.753-1.094,2.657
					c-0.349,0.895-0.68,1.793-0.965,2.704l-0.451,1.36l-0.402,1.401l-0.397,1.387l-0.338,1.405l-0.669,2.812l-0.538,2.838
					c-0.202,0.943-0.311,1.899-0.44,2.853c-0.113,0.956-0.295,1.905-0.342,2.867l-0.222,2.879c-0.036,0.961-0.036,1.923-0.057,2.885
					c-0.043,0.963,0.029,1.922,0.071,2.883c0.044,0.961,0.074,1.926,0.21,2.871c0.122,0.951,0.187,1.899,0.355,2.855l0.534,2.867
					c0.425,1.925,0.396,4.122-0.464,5.994c-0.829,1.89-2.31,3.384-3.945,4.506l0.139-0.473l1.284,2.937
					c0.42,0.984,0.97,1.904,1.448,2.86c0.25,0.473,0.484,0.955,0.776,1.403l0.836,1.37c0.285,0.452,0.542,0.923,0.852,1.36
					l0.921,1.315c0.311,0.436,0.605,0.884,0.93,1.31l0.997,1.259c0.647,0.855,1.358,1.657,2.074,2.455
					c0.358,0.398,0.7,0.812,1.085,1.186l1.127,1.148c0.743,0.774,1.562,1.47,2.34,2.209l-0.249,0.113v0L134.249,257.43z"/>
			</g>
		</g>
		<linearGradient id="SVGID_9_" gradientUnits="userSpaceOnUse" x1="245.5107" y1="128.7363" x2="245.5107" y2="145.7024">
			<stop  offset="0" style="stop-color:#D6D4D3"/>
			<stop  offset="0" style="stop-color:#9B9B9A"/>
			<stop  offset="1" style="stop-color:#686867"/>
		</linearGradient>
		<path fill="url(#SVGID_9_)" d="M300.021,136.753c-19.25-5.003-40.805-5.169-54.511-5.169c-13.7,0-35.261,0.167-54.511,5.169
			C191,136.753,237.543,155.506,300.021,136.753z"/>
		<path opacity="0.1" d="M286.256,133.983c-11.221,3.321-26.358,6.674-41.756,6.674c-16.494,0-27.715-3.847-34.551-7.381
			c-6.33,0.764-12.759,1.868-18.949,3.477c0,0,46.543,18.753,109.021,0C295.516,135.582,290.884,134.685,286.256,133.983z"/>
		<g>
			<path d="M191.542,135.354c0,0,0.412,0.173,1.139,0.437c0.72,0.282,1.836,0.652,3.247,1.131c1.432,0.429,3.15,1.018,5.174,1.537
				c1.009,0.268,2.077,0.574,3.214,0.858c1.143,0.267,2.343,0.548,3.596,0.841c1.249,0.314,2.569,0.552,3.933,0.82
				c1.365,0.253,2.768,0.57,4.227,0.796c2.922,0.433,5.991,0.994,9.204,1.295c1.604,0.173,3.231,0.379,4.885,0.534
				c1.657,0.112,3.335,0.227,5.025,0.341c0.846,0.058,1.695,0.116,2.547,0.173c0.852,0.053,1.708,0.046,2.566,0.072
				c1.716,0.037,3.438,0.073,5.161,0.11c1.724,0.076,3.446-0.035,5.163-0.067c1.717-0.048,3.428-0.096,5.125-0.144
				c3.389-0.183,6.718-0.512,9.945-0.75c3.22-0.323,6.312-0.819,9.258-1.191c0.735-0.099,1.462-0.197,2.177-0.293
				c0.712-0.112,1.406-0.264,2.093-0.39c1.372-0.264,2.697-0.52,3.97-0.765c1.273-0.245,2.494-0.48,3.654-0.703
				c0.58-0.113,1.146-0.224,1.694-0.331c0.543-0.138,1.069-0.271,1.58-0.401c2.043-0.519,3.824-0.97,5.291-1.342
				c2.935-0.745,4.612-1.171,4.612-1.171s-1.665,0.471-4.578,1.295c-1.458,0.412-3.229,0.913-5.259,1.487
				c-0.508,0.144-1.032,0.292-1.572,0.444c-0.547,0.122-1.109,0.248-1.687,0.377c-1.156,0.255-2.372,0.524-3.641,0.804
				c-1.269,0.28-2.591,0.572-3.959,0.874c-0.686,0.146-1.378,0.317-2.09,0.448c-0.714,0.116-1.438,0.234-2.174,0.353
				c-2.943,0.453-6.036,1.036-9.262,1.447c-3.234,0.328-6.572,0.749-9.979,1.026c-1.706,0.094-3.426,0.188-5.152,0.284
				c-1.728,0.08-3.462,0.237-5.199,0.208c-1.737,0.01-3.476,0.021-5.206,0.031c-0.865-0.003-1.73,0.027-2.591-0.002
				c-0.861-0.035-1.72-0.07-2.574-0.105c-1.711-0.07-3.407-0.139-5.084-0.208c-1.675-0.111-3.325-0.274-4.951-0.405
				c-3.259-0.218-6.38-0.7-9.353-1.06c-1.484-0.19-2.915-0.471-4.308-0.691c-1.39-0.235-2.737-0.441-4.015-0.725
				c-1.282-0.264-2.511-0.516-3.68-0.756c-1.165-0.259-2.263-0.541-3.299-0.786c-2.076-0.474-3.857-1.028-5.337-1.429
				c-1.469-0.455-2.621-0.803-3.421-1.09c-0.806-0.269-1.195-0.422-1.195-0.422L191.542,135.354z"/>
		</g>
		<path opacity="0.1" d="M302.98,295c-0.007,0-0.013,0-0.019,0c-171.302,9-141.943-101.44-121.963-148.455
			c-40.354,44.723-42.577,116.141-41.103,137.69c21.146,14.25,105.604,12.729,105.604,12.729S274.642,298,302.98,295z"/>
	</g>
	<path fill="#2D2D2D" d="M22.314,391c-0.651,0-1.25-0.427-1.44-1.083c-0.23-0.796,0.228-1.627,1.024-1.858L125.787,358h218.737
		l0.201,0.058l103.528,29.5c0.797,0.227,1.259,1.057,1.031,1.854c-0.227,0.797-1.058,1.26-1.854,1.031L344.105,361H126.213
		L22.731,390.941C22.592,390.981,22.452,391,22.314,391z"/>
	<linearGradient id="SVGID_10_" gradientUnits="userSpaceOnUse" x1="49.9922" y1="377.6338" x2="197.492" y2="378.1338">
		<stop  offset="0" style="stop-color:#2D2C2C"/>
		<stop  offset="1" style="stop-color:#5C5B5C"/>
	</linearGradient>
	<path fill="url(#SVGID_10_)" d="M53.028,381.769c-0.215,0-0.434-0.046-0.644-0.142c-0.752-0.346-1.069-1.263-0.723-2.016
		c0.264-0.575,3.004-5.611,17.69-5.611H195c0.828,0,1.5,0.671,1.5,1.5s-0.672,1.5-1.5,1.5H69.352
		c-12.645,0-14.968,3.878-14.99,3.917C54.112,381.46,53.585,381.769,53.028,381.769z"/>
	<linearGradient id="SVGID_11_" gradientUnits="userSpaceOnUse" x1="278.5" y1="377.8691" x2="423.4883" y2="377.8691">
		<stop  offset="0" style="stop-color:#5C5B5C"/>
		<stop  offset="1" style="stop-color:#2D2C2C"/>
	</linearGradient>
	<path fill="url(#SVGID_11_)" d="M421.988,381.738c-0.553,0-1.081-0.307-1.343-0.829c-0.099-0.163-2.543-3.909-14.974-3.909H280
		c-0.828,0-1.5-0.671-1.5-1.5s0.672-1.5,1.5-1.5h125.672c14.688,0,17.417,5.039,17.68,5.614c0.345,0.753,0.013,1.644-0.74,1.988
		C422.409,381.694,422.197,381.738,421.988,381.738z"/>
	<linearGradient id="SVGID_12_" gradientUnits="userSpaceOnUse" x1="234.2969" y1="372.1255" x2="233.9564" y2="417.9995">
		<stop  offset="0" style="stop-color:#5C5B5C"/>
		<stop  offset="1" style="stop-color:#444444"/>
	</linearGradient>
	<path fill="url(#SVGID_12_)" d="M234,414c-1.104,0-12-0.896-12-2l9-36c0-1.104,1.896-2,3-2s3,0.896,3,2l9,36
		C246,413.104,235.104,414,234,414z"/>
	<linearGradient id="SVGID_13_" gradientUnits="userSpaceOnUse" x1="233.8428" y1="371.2993" x2="235.1767" y2="351.9663">
		<stop  offset="0" style="stop-color:#5C5B5C"/>
		<stop  offset="1" style="stop-color:#444444"/>
	</linearGradient>
	<path fill="url(#SVGID_13_)" d="M234,371c-1.104,0-3-0.896-3-2l1-14c0-1.104,0.896-2,2-2s2,0.896,2,2l1,14
		C237,370.104,235.104,371,234,371z"/>
	<path fill="#7789F6" d="M179.25,485.375c-6.402,1.011-7.25,14.625-1.125,16.5s8-0.125,12.375,0s7.125,1.113,12,0.807
		s4-2.182,9.625-1.432s12.5,0.75,13.375,0.125s5.875,0.125,0.875-3.625s-6.75-5-6.75-7.5s-5,2.49-4.375,3.808
		s-2.625,0.942-2.875-2.308s-0.625-4.625-1.5-3.25s-3.5,0.75-4.125-0.125s0-4.875-1.5-0.75s-1.125,6.625-2.125,4.75
		s-1.512-2-1.631,0s4.994,6.625,0,3.125s-4.994-5.375-4.994-3.5s0.5,4.115-0.5,2.058s1.25-7.183-1.5-4.558s-3.125,5.615-4,4.558
		s-2.375-0.317-4.25,0s-4.25,3.183-3.5,0s4.625-7.808,1.875-7.558s-4.125,2.25-4.125,0.5S181.625,485,179.25,485.375z"/>
	<g>
		<path fill="#F7E161" d="M195.25,500.875c-0.75-0.375-1.25-0.625-4.125-3.875s-0.875-0.5-1.375,2.5s-1.125,0.25-3.125-1.188
			s-1.75-1.688-2.375,0s-0.875-0.062-2.25-1.562s-0.75-1.875-1.75,0s-0.625,3.125-1.625,0.75s1.5-6.875-1.375-4.875
			c-1.795,1.248-1.446,5.225-0.87,8.249c0.503,0.449,1.08,0.798,1.745,1.001c6.125,1.875,8-0.125,12.375,0
			c2.351,0.067,4.237,0.38,6.231,0.611C196.006,501.625,195.431,500.966,195.25,500.875z"/>
		<path fill="#F7E161" d="M226.363,501.125c-3.012-4.375-1.613-1-7.363-5.375s-2-0.75-2.75,3.125s-1,0.625-2.5-1.25
			s-3.75-2.875-4.125-0.125s-1.125,0.5-3.125-1.125s-2,1.875-3.5,3.323s-1.625-0.448-4.25-1.948c-2.2-1.258-1.409,0.744,0.596,4.956
			c0.968,0.044,1.998,0.048,3.154-0.024c4.875-0.307,4-2.182,9.625-1.432s12.5,0.75,13.375,0.125
			C225.668,501.255,225.99,501.186,226.363,501.125L226.363,501.125z"/>
	</g>
	<g>
		<path fill="#D48E2A" d="M219.875,500c-1.5-4.375,0,0-0.873,1.796c1.734,0.054,3.296,0.038,4.467-0.045
			c0.029-0.573,0.074-1.184,0.156-1.876C224.5,492.5,221.375,504.375,219.875,500z"/>
		<path fill="#D48E2A" d="M188.868,501.926c-0.2-0.267-0.405-0.535-0.618-0.801c-2-2.5-0.914-2.203-1.927-1.25s-1.573,1.125-2.573,0
			s-0.75-1.766-2.5,0.565s-0.875-0.19-3-1.69c-2.028-1.432-0.753-0.351,0.998,3.438C183.75,503.314,185.796,502.195,188.868,501.926
			z"/>
		<path fill="#D48E2A" d="M212.125,501.25c0.915,0.122,1.864,0.223,2.814,0.305c-0.318-0.508-0.634-1.135-0.939-1.93
			c-1.544-4.016-1.647-0.992-2.475,1.558C211.723,501.203,211.91,501.222,212.125,501.25z"/>
		<path fill="#D48E2A" d="M205.625,500.375c-1.625,0-3.125,2.307-4.361,1.934c-0.786-0.237-0.678-0.395-0.173,0.421
			c0.454-0.007,0.914-0.017,1.409-0.048c2.594-0.163,3.562-0.769,4.746-1.188C206.845,500.839,206.334,500.375,205.625,500.375z"/>
		<path fill="#D48E2A" d="M196.442,502.454c-0.676-0.565-1.135-0.183-4.442-2.829c-3.182-2.546-0.791-0.319-0.145,2.321
			C193.498,502.062,194.951,502.275,196.442,502.454z"/>
	</g>
</g>
</svg>
