<?xml version="1.0" encoding="UTF-8"?>
<svg id="Layer_1" data-name="Layer 1" xmlns="http://www.w3.org/2000/svg" width="58" height="35.34" viewBox="0 0 58 35.34">
  <path d="M5,7.85c-2.20901-.02416-4.01935,1.74701-4.04351,3.95601-.01194,1.09167,.42285,2.14079,1.20351,2.90399l5.69-5.69c-.75568-.75488-1.78189-1.17616-2.85-1.17Z" fill="#ecf1f6"/>
  <path d="M47.49,3.57c-3.093-.01431-5.99933,1.47803-7.79,4-2.42082-1.66268-5.19279-2.74409-8.1-3.16-.86264-.10378-1.7312-.15055-2.6-.14h-.11c-.90663,.0009-1.81211,.06438-2.71,.19-4.09561,.58964-7.89092,2.4873-10.82,5.41h27.06l.42,.45c1.54089-2.55988,4.86521-3.38593,7.42509-1.84505s3.38594,4.86521,1.84505,7.42509c-.97587,1.62122-2.72788,2.61473-4.62014,2.61996h-.1c.34758,1.33078,.54877,2.69553,.6,4.07,5.23838-.45088,9.11942-5.06293,8.66854-10.30132-.41369-4.80627-4.357-8.54342-9.17854-8.69868l.01-.02Z" fill="#ecf1f6"/>
  <path d="M47.39,18.52c-.8077-3.07057-2.37202-5.88977-4.55-8.2l-.42-.45H15.36c-1.11926,1.123-2.09656,2.37905-2.91,3.74l-4.59-4.59L2.17,14.71l7.61,7.61v12.02H48v-10.94c.0138-.26982,.0138-.54018,0-.81-.0545-1.37483-.25905-2.7396-.61-4.07Z" fill="#cf7200"/>
  <path d="M29,4.27c.86657,.00647,1.73177,.06994,2.59,.19V1.9c0-1.04934-.85066-1.9-1.9-1.9h-1.61c-1.04934,0-1.9,.85066-1.9,1.9v2.56c.89788-.12562,1.80337-.1891,2.71-.19h.11Z" fill="#cf7200"/>
  <path d="M47.49,18.52c2.99889,.01122,5.43905-2.41077,5.45027-5.40965,.01122-2.99889-2.41077-5.43905-5.40965-5.45027-1.92442-.0072-3.70889,1.00473-4.69062,2.65992,2.17798,2.31023,3.74229,5.12943,4.55,8.2h.1Z" fill="none"/>
  <g opacity=".15">
    <path d="M42.84,10.32l-.42-.45h-13.42v24.47h19v-10.94c.0138-.26982,.0138-.54018,0-.81-.17156-4.57928-2.00188-8.94005-5.15-12.27h-.01Z"/>
  </g>
  <g opacity=".15">
    <path d="M29,9.87h13.42c-.83646-.83404-1.74686-1.59047-2.72-2.26-2.42082-1.66268-5.19279-2.74408-8.1-3.16-.86176-.11715-1.73032-.17728-2.6-.18v5.6Z"/>
  </g>
  <g opacity=".15">
    <path d="M31.59,4.46V1.9c0-1.04934-.85066-1.9-1.9-1.9h-.69V4.27c.86657,.00647,1.73177,.06994,2.59,.19Z"/>
  </g>
  <g opacity=".15">
    <path d="M47.49,3.57c-3.093-.01431-5.99933,1.47803-7.79,4,.97315,.66953,1.88354,1.42596,2.72,2.26l.42,.45c1.54089-2.55988,4.86521-3.38593,7.42509-1.84505s3.38594,4.86521,1.84505,7.42509c-.97587,1.62122-2.72788,2.61473-4.62014,2.61996h-.1c.34758,1.33078,.54877,2.69553,.6,4.07,5.23838-.45088,9.11942-5.06293,8.66854-10.30132-.41369-4.80627-4.357-8.54342-9.17854-8.69868l.01,.02Z"/>
  </g>
  <path d="M53.33,35.34h-.33c-.55228,0-1-.44772-1-1s.44772-1,1-1h.33c.55228,0,1,.44772,1,1s-.44772,1-1,1Z" fill="#393d3f"/>
  <path d="M57,35.34h-.62c-.55228,0-1-.44772-1-1s.44772-1,1-1h.62c.55228,0,1,.44772,1,1s-.44772,1-1,1Z" fill="#393d3f"/>
  <path d="M50,35.34H1c-.55228,0-1-.44772-1-1s.44772-1,1-1H50c.55228,0,1,.44772,1,1s-.44772,1-1,1Z" fill="#393d3f"/>
</svg>